<svg width="34" height="34" viewBox="0 0 34 34" fill="none" xmlns="http://www.w3.org/2000/svg">
<path d="M12.7499 24.0833H21.2499M12.7499 19.8333H21.2499M26.916 12.75H20.6827C19.8893 12.75 19.493 12.75 19.1899 12.5956C18.9234 12.4598 18.7068 12.2431 18.571 11.9765C18.4166 11.6735 18.4166 11.2767 18.4166 10.4833V4.25M26.9166 25.2167V13.6765C26.9166 13.0198 26.9169 12.6915 26.846 12.3807C26.7832 12.1051 26.6798 11.8403 26.5386 11.5954C26.3794 11.3192 26.1562 11.0783 25.71 10.5965L21.1794 5.70333C20.6835 5.16784 20.4354 4.90007 20.1404 4.70819C19.8789 4.5381 19.5905 4.41241 19.288 4.3361C18.9468 4.25 18.5826 4.25 17.8528 4.25H11.6169C10.03 4.25 9.23605 4.25 8.62996 4.55882C8.09684 4.83046 7.66371 5.26393 7.39207 5.79706C7.08325 6.40314 7.08325 7.19654 7.08325 8.78335V25.2167C7.08325 26.8035 7.08325 27.5969 7.39207 28.203C7.66371 28.7361 8.09684 29.1695 8.62996 29.4411C9.23605 29.75 10.03 29.75 11.6169 29.75H22.3835C23.9703 29.75 24.7632 29.75 25.3693 29.4411C25.9024 29.1695 26.3364 28.7361 26.6081 28.203C26.9169 27.5969 26.9166 26.8035 26.9166 25.2167Z" stroke="#00030D" stroke-width="2.83333" stroke-linecap="round" stroke-linejoin="round"/>
</svg>
