<svg width="18" height="18" viewBox="0 0 18 18" fill="none" xmlns="http://www.w3.org/2000/svg">
<path d="M5 9L8 12L13 6M17 4.19995V13.8C17 14.9201 17.0002 15.4802 16.7822 15.908C16.5905 16.2844 16.2841 16.5902 15.9078 16.782C15.48 17 14.9203 17 13.8002 17H4.2002C3.08009 17 2.51962 17 2.0918 16.782C1.71547 16.5902 1.40973 16.2844 1.21799 15.908C1 15.4802 1 14.9201 1 13.8V4.19995C1 3.07985 1 2.51986 1.21799 2.09204C1.40973 1.71572 1.71547 1.40973 2.0918 1.21799C2.51962 1 3.08009 1 4.2002 1H13.8002C14.9203 1 15.48 1 15.9078 1.21799C16.2841 1.40973 16.5905 1.71572 16.7822 2.09204C17.0002 2.51986 17 3.07985 17 4.19995Z" stroke="#00030D" stroke-width="2" stroke-linecap="round" stroke-linejoin="round"/>
</svg>
